<?xml version="1.0" standalone="no"?>
<!DOCTYPE svg PUBLIC "-//W3C//DTD SVG 20010904//EN"
 "http://www.w3.org/TR/2001/REC-SVG-20010904/DTD/svg10.dtd">
<svg version="1.0" xmlns="http://www.w3.org/2000/svg"
 width="512.000000pt" height="512.000000pt" viewBox="0 0 512.000000 512.000000"
 preserveAspectRatio="xMidYMid meet">
<metadata>
Created by potrace 1.11, written by Peter Selinger 2001-2013
</metadata>
<g transform="translate(0.000000,512.000000) scale(0.100000,-0.100000)"
fill="#000000" stroke="none">
<path d="M3160 4943 c-76 -26 -151 -95 -193 -179 -56 -112 -77 -307 -47 -434
61 -256 251 -356 409 -214 220 198 193 708 -43 815 -39 18 -94 23 -126 12z"/>
<path d="M4064 4755 c-143 -42 -283 -231 -321 -430 -15 -78 -7 -216 16 -276
38 -101 119 -159 211 -153 179 13 356 246 378 498 12 136 -16 242 -81 310 -55
56 -126 74 -203 51z"/>
<path d="M2430 4419 c-157 -62 -263 -311 -232 -543 19 -146 72 -248 159 -309
149 -106 341 33 399 289 13 59 13 229 0 286 -49 207 -193 329 -326 277z"/>
<path d="M4397 4016 c-118 -42 -224 -171 -283 -344 -23 -65 -27 -94 -28 -192
0 -112 1 -117 34 -185 49 -97 97 -130 188 -130 86 1 136 26 219 111 145 148
212 401 154 582 -46 142 -156 203 -284 158z"/>
<path d="M3332 3864 c-110 -23 -187 -78 -262 -190 -113 -166 -210 -242 -364
-281 -130 -34 -208 -83 -266 -168 -132 -192 -78 -455 117 -578 114 -72 243
-78 458 -22 150 39 211 44 272 25 33 -11 138 -73 153 -90 17 -20 164 -119 211
-142 128 -64 265 -59 391 15 66 39 115 93 156 176 35 71 37 79 36 170 0 85 -4
103 -32 163 -21 47 -48 84 -87 120 -157 147 -185 179 -225 261 -22 46 -49 121
-60 167 -12 47 -26 101 -33 120 -35 107 -132 202 -242 240 -76 26 -144 30
-223 14z"/>
<path d="M1455 2491 c-194 -89 -238 -475 -79 -692 124 -169 318 -122 394 96
13 37 24 96 27 155 9 161 -37 301 -127 391 -69 69 -139 85 -215 50z"/>
<path d="M609 2321 c-170 -93 -152 -454 32 -655 119 -131 259 -147 346 -41
137 165 37 557 -173 680 -63 37 -154 44 -205 16z"/>
<path d="M2093 2019 c-169 -84 -223 -411 -106 -642 20 -40 79 -103 118 -127
69 -43 158 -30 223 33 93 88 134 245 110 419 -25 186 -144 337 -268 338 -19 0
-54 -9 -77 -21z"/>
<path d="M299 1661 c-130 -69 -165 -282 -80 -491 80 -197 231 -308 365 -270
198 55 199 440 2 665 -83 96 -209 138 -287 96z"/>
<path d="M1241 1524 c-66 -19 -103 -40 -154 -84 -46 -41 -105 -142 -112 -191
-7 -59 -30 -130 -67 -208 -40 -83 -60 -107 -200 -236 -241 -223 -80 -622 253
-626 102 -1 165 28 344 158 155 113 188 119 390 70 184 -46 289 -46 380 -2
120 58 202 176 210 304 13 192 -107 345 -305 391 -128 29 -227 106 -326 250
-57 85 -126 142 -198 166 -62 21 -160 24 -215 8z"/>
</g>
</svg>
