<?xml version="1.0" standalone="no"?>
<!DOCTYPE svg PUBLIC "-//W3C//DTD SVG 20010904//EN"
 "http://www.w3.org/TR/2001/REC-SVG-20010904/DTD/svg10.dtd">
<svg version="1.0" xmlns="http://www.w3.org/2000/svg"
 width="700.000000pt" height="700.000000pt" viewBox="0 0 700.000000 700.000000"
 preserveAspectRatio="xMidYMid meet">
<metadata>
Created by potrace 1.11, written by Peter Selinger 2001-2013
</metadata>
<g transform="translate(0.000000,700.000000) scale(0.100000,-0.100000)"
fill="#000000" stroke="none">
<path d="M2468 6695 c-1 -1 -19 -5 -39 -8 -52 -6 -166 -46 -219 -75 -170 -94
-306 -241 -400 -433 -32 -64 -78 -191 -87 -239 -2 -14 -9 -45 -14 -70 -22 -99
-29 -281 -16 -410 7 -71 48 -249 68 -296 95 -225 189 -359 332 -467 139 -107
286 -160 447 -160 136 0 193 12 320 70 251 114 460 409 525 740 26 131 30 369
10 493 -59 348 -263 650 -528 780 -106 52 -180 70 -299 75 -53 2 -98 2 -100 0z"/>
<path d="M4311 6684 c-195 -45 -363 -158 -492 -331 -69 -92 -118 -186 -154
-294 -48 -146 -48 -144 -62 -234 -10 -63 -10 -355 0 -416 19 -119 65 -266 114
-363 181 -364 518 -561 858 -501 69 12 196 57 225 79 8 7 27 18 42 25 51 26
157 121 217 196 66 83 119 172 155 261 13 33 27 68 31 79 4 11 9 25 11 30 1 6
9 36 18 68 56 212 54 461 -6 687 -99 368 -358 642 -680 716 -48 11 -225 10
-277 -2z"/>
<path d="M639 5734 c-239 -45 -447 -232 -559 -503 -53 -130 -73 -240 -74 -406
0 -168 6 -213 40 -333 122 -420 456 -667 822 -608 294 48 550 342 622 716 18
91 20 308 3 399 -88 494 -456 810 -854 735z"/>
<path d="M6105 5728 c-38 -10 -74 -20 -80 -21 -5 -2 -37 -17 -70 -34 -289
-150 -469 -497 -460 -887 4 -149 23 -259 66 -371 192 -494 667 -686 1049 -424
178 123 300 312 361 560 42 174 30 444 -27 618 -27 81 -96 212 -147 280 -175
233 -449 344 -692 279z"/>
<path d="M2490 4307 c-295 -47 -555 -176 -756 -374 -49 -49 -99 -102 -111
-118 -13 -17 -39 -52 -59 -78 -72 -96 -184 -340 -201 -437 -2 -14 -8 -41 -13
-60 -25 -99 -34 -366 -16 -485 33 -221 125 -437 267 -625 54 -72 1716 -1745
1782 -1794 55 -40 119 -50 187 -28 39 13 152 122 920 891 632 633 891 899 933
957 139 197 219 403 252 654 6 44 7 257 1 290 -3 14 -7 43 -10 66 -40 319
-234 649 -502 860 -189 148 -396 239 -634 279 -121 20 -387 13 -500 -13 -170
-40 -334 -110 -463 -197 l-68 -46 -68 46 c-38 24 -104 62 -147 84 -129 63
-202 86 -399 127 -48 10 -335 11 -395 1z"/>
</g>
</svg>
